<svg width="36" height="34" viewBox="0 0 36 34" fill="none" xmlns="http://www.w3.org/2000/svg">
<path d="M18.0003 14.4795C12.4169 14.4795 4.50049 23.7369 4.50049 29.5805C4.50049 32.2124 6.38555 33.7847 9.54466 33.7847C12.9787 33.7847 15.2462 31.8934 18.0003 31.8934C20.7784 31.8934 23.0522 33.7847 26.456 33.7847C29.6152 33.7847 31.5002 32.2124 31.5002 29.5805C31.5002 23.7369 23.5838 14.4795 18.0003 14.4795ZM7.64483 13.5285C6.91359 10.9155 4.6608 9.22331 2.61332 9.74817C0.565846 10.273 -0.500783 12.8167 0.230459 15.4296C0.961701 18.0426 3.21449 19.7349 5.26197 19.21C7.30945 18.6851 8.37608 16.1415 7.64483 13.5285ZM13.6016 11.9615C15.7771 11.3476 16.8655 8.19546 16.033 4.92111C15.2005 1.64676 12.7621 -0.509248 10.5867 0.104599C8.41123 0.718445 7.32281 3.87063 8.1553 7.14498C8.98779 10.4193 11.4269 12.5761 13.6016 11.9615ZM33.3867 9.74893C31.3392 9.22407 29.0871 10.9163 28.3552 13.5293C27.6239 16.1423 28.6905 18.6859 30.738 19.2108C32.7855 19.7356 35.0376 18.0434 35.7695 15.4304C36.5008 12.8174 35.4342 10.2738 33.3867 9.74893ZM22.3991 11.9615C24.5745 12.5753 27.0129 10.4193 27.8454 7.14498C28.6779 3.87063 27.5895 0.7192 25.414 0.104599C23.2386 -0.510002 20.8002 1.64676 19.9677 4.92111C19.1352 8.19546 20.2236 11.3476 22.3991 11.9615Z" fill="#EF9F9F"/>
</svg>
