<svg width="150" height="150" viewBox="0 0 150 150" fill="none" xmlns="http://www.w3.org/2000/svg">
<path d="M77.6781 150C57.0766 150 37.3189 141.816 22.7514 127.249C8.18392 112.681 0 92.9234 0 72.3219C0 40.8488 18.0803 12.6302 46.0745 0.446143C47.0611 0.016151 48.1544 -0.106702 49.2118 0.0935931C50.2693 0.293889 51.2419 0.808045 52.0029 1.56907C52.7639 2.33009 53.2781 3.30268 53.4784 4.36013C53.6787 5.41757 53.5558 6.51083 53.1258 7.49744C49.9116 14.8769 48.214 24.3288 48.214 34.8221C48.214 71.746 78.254 101.786 115.178 101.786C125.671 101.786 135.123 100.088 142.503 96.8742C143.489 96.4442 144.582 96.3213 145.64 96.5216C146.697 96.7219 147.67 97.2361 148.431 97.9971C149.192 98.7581 149.706 99.7307 149.906 100.788C150.107 101.846 149.984 102.939 149.554 103.925C137.37 131.92 109.151 150 77.6781 150Z" fill="white"/>
</svg>
