<svg width="160" height="161" viewBox="0 0 160 161" fill="none" xmlns="http://www.w3.org/2000/svg">
<path d="M86.4327 6.43267C86.4327 2.95749 83.4752 0 80.0003 0C76.5251 0 73.5677 2.95749 73.5677 6.43267V21.9593C73.5677 25.4345 76.5251 28.392 80.0003 28.392C83.4752 28.392 86.4327 25.4345 86.4327 21.9593V6.43267ZM116.525 34.6025C114.085 37.1165 114.085 41.257 116.525 43.6971C119.039 46.2107 123.106 46.2849 125.693 43.6971L136.71 32.6804C139.225 30.1664 139.225 26.026 136.71 23.512C134.27 21.0722 130.13 21.0722 127.616 23.512L116.525 34.6025ZM34.3069 43.6971C36.7468 46.2107 40.8873 46.2107 43.4012 43.6971C45.8413 41.3311 45.8413 37.0427 43.4753 34.6025L32.4586 23.512C30.0926 21.146 25.878 21.0722 23.3641 23.512C20.9242 25.9518 20.9242 30.1664 23.2902 32.6066L34.3069 43.6971ZM80.0003 42.5138C59.3717 42.5138 42.292 59.5934 42.292 80.2221C42.292 100.85 59.3717 118.004 80.0003 118.004C100.555 118.004 117.634 100.85 117.634 80.2221C117.634 59.5934 100.555 42.5138 80.0003 42.5138ZM153.568 86.6544C157.043 86.6544 160 83.6973 160 80.2221C160 76.7469 157.043 73.7894 153.568 73.7894H138.115C134.64 73.7894 131.683 76.7469 131.683 80.2221C131.683 83.6973 134.64 86.6544 138.115 86.6544H153.568ZM6.43267 73.7894C2.95749 73.7894 0 76.7469 0 80.2221C0 83.6973 2.95749 86.6544 6.43267 86.6544H21.8855C25.3606 86.6544 28.3181 83.6973 28.3181 80.2221C28.3181 76.7469 25.3606 73.7894 21.8855 73.7894H6.43267ZM125.62 116.821C123.106 114.381 119.039 114.381 116.525 116.821C114.085 119.261 114.085 123.402 116.525 125.915L127.616 137.006C130.13 139.446 134.27 139.372 136.71 136.932C139.225 134.492 139.225 130.352 136.71 127.838L125.62 116.821ZM23.2902 127.764C20.7763 130.204 20.7763 134.418 23.2164 136.858C25.6562 139.298 29.8705 139.372 32.3845 136.932L43.4012 125.915C45.8413 123.475 45.8413 119.335 43.4753 116.821C41.0352 114.381 36.8209 114.381 34.3069 116.821L23.2902 127.764ZM86.4327 138.485C86.4327 135.01 83.4752 132.052 80.0003 132.052C76.5251 132.052 73.5677 135.01 73.5677 138.485V154.012C73.5677 157.487 76.5251 160.444 80.0003 160.444C83.4752 160.444 86.4327 157.487 86.4327 154.012V138.485Z" fill="black"/>
</svg>
