<svg width="160" height="161" viewBox="0 0 160 161" fill="none" xmlns="http://www.w3.org/2000/svg">
<path d="M0 80C0 78.1921 0.602636 76.6102 1.88324 75.3296C3.16384 74.1243 4.74576 73.5216 6.40301 73.5216H21.7702C23.5028 73.5216 24.9341 74.1243 26.1394 75.4049C27.2693 76.6855 27.8719 78.1921 27.8719 80C27.8719 81.8079 27.3446 83.3145 26.2147 84.5951C25.0847 85.8757 23.5782 86.4783 21.8456 86.4783H6.47834C4.74576 86.4783 3.23917 85.8757 1.95857 84.5951C0.677968 83.3145 0 81.8079 0 80ZM21.5443 132.203C21.5443 130.471 22.1469 128.964 23.2768 127.608L34.3503 116.836C35.4802 115.631 36.9868 115.104 38.7947 115.104C40.6026 115.104 42.1092 115.706 43.3145 116.836C44.5198 117.966 45.1224 119.397 45.1224 121.13C45.1224 122.938 44.5198 124.595 43.3145 125.951L32.6177 136.648C29.5292 139.058 26.4407 139.058 23.3522 136.648C22.1469 135.443 21.5443 133.936 21.5443 132.203ZM21.5443 27.9473C21.5443 26.2147 22.1469 24.7081 23.2768 23.3522C24.7834 22.0716 26.3654 21.4689 28.0979 21.4689C29.7552 21.4689 31.2618 22.0716 32.5424 23.2768L43.3145 34.3503C44.5198 35.4802 45.1224 36.9868 45.1224 38.7947C45.1224 40.6026 44.5198 42.1092 43.3145 43.3145C42.1092 44.5198 40.6026 45.1224 38.7947 45.1224C36.9868 45.1224 35.4802 44.5198 34.3503 43.3145L23.3522 32.5424C22.1469 31.3371 21.5443 29.7552 21.5443 27.9473ZM40.7533 80C40.7533 72.9943 42.4859 66.4407 46.0264 60.4143C49.5668 54.3879 54.3126 49.5668 60.4143 46.0264C66.516 42.4859 72.9943 40.7533 80 40.7533C85.2731 40.7533 90.3201 41.8079 95.2166 43.9171C100.038 46.0264 104.256 48.8136 107.721 52.354C111.262 55.8945 114.049 60.0377 116.083 64.8587C118.117 69.6798 119.171 74.8023 119.171 80.0753C119.171 87.1563 117.439 93.71 113.898 99.7363C110.358 105.763 105.612 110.508 99.5857 114.049C93.5593 117.589 87.0056 119.322 79.9247 119.322C72.8437 119.322 66.29 117.589 60.2636 114.049C54.2373 110.508 49.4915 105.763 45.951 99.7363C42.5612 93.6346 40.7533 87.081 40.7533 80ZM53.5593 80C53.5593 87.3823 56.1205 93.6346 61.3183 98.8324C66.4407 104.03 72.693 106.667 80.0753 106.667C87.4576 106.667 93.71 104.03 98.9077 98.8324C104.105 93.6346 106.742 87.3823 106.742 80C106.742 72.7684 104.105 66.5913 98.9077 61.3936C93.71 56.2712 87.4576 53.71 80.0753 53.71C72.7684 53.71 66.516 56.2712 61.3936 61.3936C56.1205 66.5913 53.5593 72.7684 53.5593 80ZM73.597 138.606C73.597 136.798 74.1996 135.292 75.4802 134.087C76.7608 132.881 78.2674 132.279 80 132.279C81.8079 132.279 83.3898 132.881 84.5951 134.087C85.8004 135.292 86.403 136.798 86.403 138.606V153.597C86.403 155.405 85.8004 156.987 84.5198 158.267C83.2392 159.548 81.7326 160.151 80 160.151C78.2674 160.151 76.6855 159.548 75.4802 158.267C74.1996 156.987 73.597 155.405 73.597 153.597V138.606ZM73.597 21.8456V6.47834C73.597 4.74576 74.1996 3.23917 75.4802 1.95857C76.7608 0.677968 78.2674 0 80.0753 0C81.8832 0 83.3145 0.602636 84.5951 1.88324C85.8757 3.16384 86.4783 4.67043 86.4783 6.40301V21.8456C86.4783 23.5782 85.8757 25.0094 84.5951 26.2147C83.3145 27.42 81.8079 27.9473 80.0753 27.9473C78.3427 27.9473 76.7608 27.3446 75.5555 26.2147C74.3503 25.0847 73.597 23.5782 73.597 21.8456ZM115.179 121.13C115.179 119.397 115.782 117.966 116.911 116.911C118.041 115.706 119.473 115.179 121.13 115.179C122.938 115.179 124.444 115.782 125.65 116.911L136.648 127.684C137.853 128.964 138.456 130.546 138.456 132.279C138.456 134.011 137.853 135.518 136.648 136.723C133.635 139.058 130.621 139.058 127.608 136.723L116.911 126.026C115.782 124.67 115.179 123.088 115.179 121.13ZM115.179 38.87C115.179 36.9868 115.782 35.4802 116.911 34.4256L127.608 23.3522C128.889 22.1469 130.395 21.5443 132.053 21.5443C133.861 21.5443 135.367 22.1469 136.573 23.4275C137.853 24.7081 138.456 26.2147 138.456 27.9473C138.456 29.8305 137.853 31.4124 136.648 32.6177L125.65 43.3898C124.294 44.5951 122.787 45.1977 121.13 45.1977C119.397 45.1977 118.041 44.5951 116.911 43.3898C115.782 42.1846 115.179 40.678 115.179 38.87ZM132.203 80C132.203 78.1921 132.806 76.6855 134.011 75.3296C135.217 74.1243 136.648 73.5216 138.305 73.5216H153.522C155.254 73.5216 156.761 74.1996 158.041 75.4802C159.322 76.7608 160 78.2674 160 80C160 81.7326 159.322 83.2392 158.041 84.5198C156.761 85.8004 155.254 86.403 153.522 86.403H138.305C136.572 86.403 135.066 85.8004 133.936 84.5198C132.806 83.2392 132.203 81.8079 132.203 80Z" fill="black"/>
</svg>
