<svg width="42" height="34" viewBox="0 0 42 34" fill="none" xmlns="http://www.w3.org/2000/svg">
<path d="M16.5611 33.125C16.1474 33.126 15.7376 33.0323 15.3552 32.8493C14.9728 32.6664 14.6254 32.3977 14.3329 32.0587L0.963723 16.5647C0.662513 16.2281 0.422176 15.8254 0.256737 15.38C0.0912974 14.9346 0.00406823 14.4555 0.000138939 13.9706C-0.00379035 13.4858 0.0756589 13.0049 0.233851 12.556C0.392043 12.1071 0.62581 11.6992 0.921512 11.3561C1.21721 11.013 1.56893 10.7415 1.95613 10.5576C2.34334 10.3737 2.75828 10.2809 3.17675 10.2848C3.59522 10.2887 4.00883 10.3891 4.39346 10.5801C4.77808 10.7712 5.12602 11.0491 5.41696 11.3976L16.5579 24.3062L36.618 1.07068C36.9106 0.731402 37.258 0.462225 37.6404 0.278517C38.0228 0.09481 38.4327 0.000169773 38.8466 2.28204e-07C39.2606 -0.000169316 39.6705 0.0941353 40.053 0.277529C40.4355 0.460923 40.7831 0.729815 41.0759 1.06885C41.3688 1.40789 41.6011 1.81043 41.7596 2.2535C41.9182 2.69657 41.9999 3.17148 42 3.65112C42.0001 4.13076 41.9188 4.60574 41.7605 5.04893C41.6022 5.49213 41.3701 5.89486 41.0775 6.23414L18.7893 32.0587C18.4967 32.3977 18.1493 32.6664 17.7669 32.8493C17.3846 33.0323 16.9748 33.126 16.5611 33.125Z" fill="#67C650"/>
</svg>
