<svg width="99" height="106" viewBox="0 0 99 106" fill="none" xmlns="http://www.w3.org/2000/svg">
<path d="M59.811 65.2345C75.9524 65.2345 89.0376 52.2099 89.0376 36.1433C89.0376 20.0767 75.9524 7.05206 59.811 7.05206C43.6696 7.05206 30.5844 20.0767 30.5844 36.1433C30.5844 52.2099 43.6696 65.2345 59.811 65.2345Z" fill="#FFE5D2"/>
<path d="M54.287 6.75892C54.287 5.44334 53.8001 4.18164 52.9334 3.25139C52.0667 2.32113 50.8912 1.79852 49.6655 1.79852C48.4398 1.79852 47.2643 2.32113 46.3976 3.25139C45.5309 4.18164 45.0439 5.44334 45.0439 6.75892C45.0439 9.49871 49.6655 36.5213 49.6655 36.5213C49.6655 36.5213 54.287 9.49871 54.287 6.75892Z" fill="#77A052" stroke="#4C241D" stroke-width="2.18727" stroke-linecap="round" stroke-linejoin="round"/>
<path d="M49.6655 41.4817V44.7886" stroke="#4C241D" stroke-width="2.18727" stroke-linecap="round" stroke-linejoin="round"/>
<path d="M54.287 99.3528C54.287 100.668 53.8001 101.93 52.9334 102.86C52.0667 103.791 50.8912 104.313 49.6655 104.313C48.4398 104.313 47.2643 103.791 46.3976 102.86C45.5309 101.93 45.0439 100.668 45.0439 99.3528C45.0439 96.613 49.6655 69.5905 49.6655 69.5905C49.6655 69.5905 54.287 96.613 54.287 99.3528Z" fill="#BF7E68" stroke="#4C241D" stroke-width="2.18727" stroke-linecap="round" stroke-linejoin="round"/>
<path d="M6.53131 48.0956C5.30561 48.0956 4.13011 48.6183 3.2634 49.5485C2.3967 50.4788 1.90979 51.7405 1.90979 53.056C1.90979 54.3716 2.3967 55.6333 3.2634 56.5636C4.13011 57.4938 5.30561 58.0164 6.53131 58.0164C9.08393 58.0164 34.2604 53.056 34.2604 53.056C34.2604 53.056 9.08393 48.0956 6.53131 48.0956Z" fill="#FC8C29" stroke="#4C241D" stroke-width="2.18727" stroke-linecap="round" stroke-linejoin="round"/>
<path d="M92.7997 48.0956C94.0254 48.0956 95.2009 48.6183 96.0676 49.5485C96.9343 50.4788 97.4212 51.7405 97.4212 53.056C97.4212 54.3716 96.9343 55.6333 96.0676 56.5636C95.2009 57.4938 94.0254 58.0164 92.7997 58.0164C90.2471 58.0164 65.0706 53.056 65.0706 53.056C65.0706 53.056 90.2471 48.0956 92.7997 48.0956Z" fill="#E66353" stroke="#4C241D" stroke-width="2.18727" stroke-linecap="round" stroke-linejoin="round"/>
<path d="M27.3404 22.0798C26.4722 21.2561 25.3357 20.8344 24.1789 20.9069C23.0221 20.9794 21.939 21.5402 21.166 22.4667C20.3027 23.2964 19.7803 24.4589 19.7128 25.7005C19.6453 26.9421 20.0381 28.162 20.8055 29.0938C22.4107 30.8184 41.5161 44.3057 41.5161 44.3057C41.5161 44.3057 28.9471 23.8027 27.3404 22.0798Z" fill="#BD53B5" stroke="#4C241D" stroke-width="2.18727" stroke-linecap="round" stroke-linejoin="round"/>
<path d="M78.5254 77.0179C79.2325 77.978 79.5865 79.1835 79.5202 80.4053C79.4538 81.6271 78.9717 82.7802 78.1654 83.6456C77.3591 84.511 76.2848 85.0285 75.1465 85.0997C74.0081 85.1709 72.8851 84.7909 71.9905 84.0319C70.3838 82.309 57.8179 61.8027 57.8179 61.8027C57.8179 61.8027 76.9202 75.2934 78.5254 77.0179Z" fill="#F4AEAB" stroke="#4C241D" stroke-width="2.18727" stroke-linecap="round" stroke-linejoin="round"/>
<path d="M20.8055 77.0179C20.0381 77.9498 19.6453 79.1696 19.7128 80.4112C19.7803 81.6529 20.3027 82.8154 21.166 83.645C21.939 84.5716 23.0221 85.1323 24.1789 85.2048C25.3357 85.2773 26.4722 84.8557 27.3404 84.0319C28.9471 82.309 41.513 61.8027 41.513 61.8027C41.513 61.8027 22.4107 75.2934 20.8055 77.0179Z" fill="#9DC1E4" stroke="#4C241D" stroke-width="2.18727" stroke-linecap="round" stroke-linejoin="round"/>
<path d="M71.9906 22.0798C72.8587 21.2561 73.9953 20.8344 75.1521 20.9069C76.3088 20.9794 77.3919 21.5402 78.1649 22.4667C79.0282 23.2964 79.5506 24.4589 79.6181 25.7005C79.6857 26.9421 79.2929 28.162 78.5254 29.0938C76.9202 30.8184 57.8148 44.3057 57.8148 44.3057C57.8148 44.3057 70.3838 23.8027 71.9906 22.0798Z" fill="#FFCE56" stroke="#4C241D" stroke-width="2.18727" stroke-linecap="round" stroke-linejoin="round"/>
<path d="M49.6655 64.6302V61.3232" stroke="#4C241D" stroke-width="2.18727" stroke-linecap="round" stroke-linejoin="round"/>
<path d="M38.882 53.056H41.963" stroke="#4C241D" stroke-width="2.18727" stroke-linecap="round" stroke-linejoin="round"/>
<path d="M60.4491 53.056H57.368" stroke="#4C241D" stroke-width="2.18727" stroke-linecap="round" stroke-linejoin="round"/>
<path d="M49.6655 56.3629C51.3671 56.3629 52.7465 54.8824 52.7465 53.056C52.7465 51.2296 51.3671 49.7491 49.6655 49.7491C47.9639 49.7491 46.5845 51.2296 46.5845 53.056C46.5845 54.8824 47.9639 56.3629 49.6655 56.3629Z" stroke="#4C241D" stroke-width="2.18727" stroke-linecap="round" stroke-linejoin="round"/>
<path d="M91.7564 4.34581C92.5071 4.34581 93.1157 3.74002 93.1157 2.99273C93.1157 2.24544 92.5071 1.63965 91.7564 1.63965C91.0056 1.63965 90.397 2.24544 90.397 2.99273C90.397 3.74002 91.0056 4.34581 91.7564 4.34581Z" fill="#4C241D"/>
<path d="M26.5062 69.2937C27.257 69.2937 27.8656 68.6879 27.8656 67.9406C27.8656 67.1933 27.257 66.5875 26.5062 66.5875C25.7555 66.5875 25.1469 67.1933 25.1469 67.9406C25.1469 68.6879 25.7555 69.2937 26.5062 69.2937Z" fill="#4C241D"/>
<path d="M26.5062 4.34581C27.257 4.34581 27.8656 3.74002 27.8656 2.99273C27.8656 2.24544 27.257 1.63965 26.5062 1.63965C25.7555 1.63965 25.1469 2.24544 25.1469 2.99273C25.1469 3.74002 25.7555 4.34581 26.5062 4.34581Z" fill="#4C241D"/>
<path d="M91.7564 69.2937C92.5071 69.2937 93.1157 68.6879 93.1157 67.9406C93.1157 67.1933 92.5071 66.5875 91.7564 66.5875C91.0056 66.5875 90.397 67.1933 90.397 67.9406C90.397 68.6879 91.0056 69.2937 91.7564 69.2937Z" fill="#4C241D"/>
</svg>
