<svg width="15" height="15" viewBox="0 0 15 15" fill="none" xmlns="http://www.w3.org/2000/svg">
<path d="M9.0871 7.50071L13.9036 2.45389C14.0338 2.32223 14.1376 2.16474 14.209 1.9906C14.2804 1.81647 14.318 1.62918 14.3196 1.43967C14.3211 1.25016 14.2867 1.06222 14.2182 0.886812C14.1496 0.711405 14.0485 0.552048 13.9205 0.418038C13.7926 0.284027 13.6405 0.178048 13.473 0.106284C13.3056 0.0345195 13.1262 -0.00159292 12.9452 5.3889e-05C12.7643 0.0017007 12.5855 0.0410738 12.4193 0.115876C12.2531 0.190677 12.1027 0.29941 11.977 0.435729L7.15913 5.48113L2.34258 0.435729C2.21689 0.29941 2.06654 0.190677 1.90031 0.115876C1.73408 0.0410738 1.55529 0.0017007 1.37437 5.3889e-05C1.19345 -0.00159292 1.01404 0.0345195 0.846587 0.106284C0.679137 0.178048 0.527007 0.284027 0.399076 0.418038C0.271144 0.552048 0.169972 0.711405 0.101463 0.886812C0.0329537 1.06222 -0.00152066 1.25016 5.14447e-05 1.43967C0.00162355 1.62918 0.0392107 1.81647 0.11062 1.9906C0.182028 2.16474 0.285829 2.32223 0.415964 2.45389L5.23251 7.49929L0.415964 12.5461C0.285829 12.6778 0.182028 12.8353 0.11062 13.0094C0.0392107 13.1835 0.00162355 13.3708 5.14447e-05 13.5603C-0.00152066 13.7498 0.0329537 13.9378 0.101463 14.1132C0.169972 14.2886 0.271144 14.448 0.399076 14.582C0.527007 14.716 0.679137 14.822 0.846587 14.8937C1.01404 14.9655 1.19345 15.0016 1.37437 14.9999C1.55529 14.9983 1.73408 14.9589 1.90031 14.8841C2.06654 14.8093 2.21689 14.7006 2.34258 14.5643L7.15913 9.51887L11.977 14.5643C12.1027 14.7006 12.2531 14.8093 12.4193 14.8841C12.5855 14.9589 12.7643 14.9983 12.9452 14.9999C13.1262 15.0016 13.3056 14.9655 13.473 14.8937C13.6405 14.822 13.7926 14.716 13.9205 14.582C14.0485 14.448 14.1496 14.2886 14.2182 14.1132C14.2867 13.9378 14.3211 13.7498 14.3196 13.5603C14.318 13.3708 14.2804 13.1835 14.209 13.0094C14.1376 12.8353 14.0338 12.6778 13.9036 12.5461L9.0871 7.50071Z" fill="#EEEEEE"/>
</svg>
