<svg width="779" height="457" viewBox="0 0 779 457" fill="none" xmlns="http://www.w3.org/2000/svg">
<rect x="689" y="199" width="11.481" height="7.57" transform="rotate(-142 689 199)" fill="#F62584" fill-opacity="0.65"/>
<rect x="218" y="279" width="19.481" height="7.57" transform="rotate(75 218 279)" fill="#755FFE" fill-opacity="0.6"/>
<rect x="374" y="402" width="15.481" height="8.57" transform="rotate(-177 374 402)" fill="#DCBCFA" fill-opacity="0.65"/>
<rect x="300" y="456" width="23.481" height="7.57" transform="rotate(-144 300 456)" fill="#FFED36" fill-opacity="0.65"/>
<rect x="604" y="113" width="7.481" height="7.57" transform="rotate(-56 604 113)" fill="#DCBCFA" fill-opacity="0.35"/>
<rect x="213" y="18" width="24.481" height="9.57" transform="rotate(-107 213 18)" fill="#C9FCBE" fill-opacity="0.9"/>
<rect x="22" y="22" width="20.481" height="9.57" transform="rotate(-166 22 22)" fill="#FC9E1C" fill-opacity="0.85"/>
<rect x="731" y="409" width="20.481" height="8.57" transform="rotate(-166 731 409)" fill="#755FFE" fill-opacity="0.75"/>
<rect x="327" y="351" width="11.481" height="8.57" transform="rotate(97 327 351)" fill="#F54721" fill-opacity="0.45"/>
<rect x="452" y="402" width="29.481" height="4.57" transform="rotate(176 452 402)" fill="#480CA7" fill-opacity="0.65"/>
<rect x="144" y="196" width="11.481" height="6.57" transform="rotate(-23 144 196)" fill="#9AF5FC" fill-opacity="0.9"/>
<rect x="112" y="352" width="6.481" height="6.57" transform="rotate(-94 112 352)" fill="#F62584" fill-opacity="0.45"/>
<rect x="291" y="44" width="19.481" height="4.57" transform="rotate(15 291 44)" fill="#BA3E03" fill-opacity="0.9"/>
<rect x="576" y="370" width="17.481" height="8.57" transform="rotate(3 576 370)" fill="#FF21FB" fill-opacity="0.9"/>
<rect x="634" y="394" width="28.481" height="7.57" transform="rotate(174 634 394)" fill="#DCBCFA" fill-opacity="0.85"/>
<rect x="153" y="166" width="6.481" height="6.57" transform="rotate(73 153 166)" fill="#9DED1A"/>
<rect x="263" y="49" width="27.481" height="6.57" transform="rotate(-31 263 49)" fill="#FC9E1C"/>
<rect x="257" y="359" width="5.481" height="6.57" transform="rotate(-116 257 359)" fill="#4BC8EF" fill-opacity="0.75"/>
<rect x="534" y="401" width="14.481" height="5.57" transform="rotate(43 534 401)" fill="#DCBCFA" fill-opacity="0.75"/>
<rect x="290" y="161" width="6.481" height="5.57" transform="rotate(65 290 161)" fill="#480CA7" fill-opacity="0.65"/>
<rect x="151" y="217" width="29.481" height="6.57" transform="rotate(-174 151 217)" fill="#480CA7" fill-opacity="0.85"/>
<rect x="624" y="254" width="12.481" height="4.57" transform="rotate(59 624 254)" fill="#FC9E1C" fill-opacity="0.65"/>
<rect x="399" y="56" width="10.481" height="5.57" transform="rotate(-77 399 56)" fill="#FF21FB" fill-opacity="0.65"/>
<circle cx="720.958" cy="72.0425" r="1.9575" transform="rotate(-90 720.958 72.0425)" fill="#BA3E03" fill-opacity="0.75"/>
<circle cx="444.957" cy="257.043" r="1.9575" transform="rotate(-90 444.957 257.043)" fill="#BA3E03" fill-opacity="0.9"/>
<circle cx="660.958" cy="326.043" r="2.9575" transform="rotate(-90 660.958 326.043)" fill="#F54721" fill-opacity="0.85"/>
<circle cx="210.958" cy="123.043" r="1.9575" transform="rotate(-90 210.958 123.043)" fill="#F62584"/>
<circle cx="293.957" cy="62.0425" r="2.9575" transform="rotate(-90 293.957 62.0425)" fill="#03A3F5" fill-opacity="0.45"/>
<circle cx="56.9575" cy="244.042" r="1.9575" transform="rotate(-90 56.9575 244.042)" fill="#F62584" fill-opacity="0.35"/>
<circle cx="666.458" cy="130.542" r="4.4575" transform="rotate(-90 666.458 130.542)" fill="#755FFE" fill-opacity="0.85"/>
<circle cx="91.9575" cy="284.043" r="1.9575" transform="rotate(-90 91.9575 284.043)" fill="#FC9E1C" fill-opacity="0.6"/>
<circle cx="378.457" cy="226.542" r="3.4575" transform="rotate(-90 378.457 226.542)" fill="#F54721" fill-opacity="0.9"/>
<circle cx="525.958" cy="365.043" r="4.9575" transform="rotate(-90 525.958 365.043)" fill="#F54721"/>
<circle cx="170.458" cy="352.543" r="5.4575" transform="rotate(-90 170.458 352.543)" fill="#F54721" fill-opacity="0.85"/>
<circle cx="377.957" cy="177.042" r="2.9575" transform="rotate(-90 377.957 177.042)" fill="#F54721" fill-opacity="0.9"/>
<circle cx="316.457" cy="270.543" r="3.4575" transform="rotate(-90 316.457 270.543)" fill="#FF21FB"/>
<circle cx="471.457" cy="416.543" r="2.4575" transform="rotate(-90 471.457 416.543)" fill="#F62584" fill-opacity="0.35"/>
<circle cx="769.958" cy="338.043" r="2.9575" transform="rotate(-90 769.958 338.043)" fill="#FFED36" fill-opacity="0.45"/>
<circle cx="69.9575" cy="377.043" r="4.9575" transform="rotate(-90 69.9575 377.043)" fill="#FF21FB" fill-opacity="0.75"/>
<circle cx="62.4575" cy="67.5425" r="4.4575" transform="rotate(-90 62.4575 67.5425)" fill="#C9FCBE" fill-opacity="0.75"/>
<circle cx="22.4575" cy="78.5425" r="4.4575" transform="rotate(-90 22.4575 78.5425)" fill="#FC9E1C" fill-opacity="0.85"/>
<circle cx="690.958" cy="432.043" r="5.9575" transform="rotate(-90 690.958 432.043)" fill="#F54721" fill-opacity="0.35"/>
<circle cx="178.958" cy="295.043" r="1.9575" transform="rotate(-90 178.958 295.043)" fill="#F54721" fill-opacity="0.85"/>
<circle cx="259.957" cy="59.0425" r="5.9575" transform="rotate(-90 259.957 59.0425)" fill="#755FFE" fill-opacity="0.75"/>
<circle cx="116.457" cy="310.543" r="3.4575" transform="rotate(-90 116.457 310.543)" fill="#F54721" fill-opacity="0.9"/>
<circle cx="712.458" cy="139.542" r="4.4575" transform="rotate(-90 712.458 139.542)" fill="#FF21FB" fill-opacity="0.9"/>
<path d="M94.8782 247.418L92.0515 243.065L95.3178 239.031L100.163 240.891L99.8915 246.074L94.8782 247.418Z" fill="#480CA7" fill-opacity="0.45"/>
<path d="M198.536 446.536L200.196 452.733L195.66 457.269L189.464 455.608L187.804 449.412L192.34 444.876L198.536 446.536Z" fill="#F62584" fill-opacity="0.65"/>
<path d="M543.234 62.8122L534.023 56.5989L544.009 51.7281L543.234 62.8122Z" fill="#FC9E1C" fill-opacity="0.65"/>
<path d="M462.56 303.276L470.843 302.112L472.008 310.396L463.724 311.56L462.56 303.276Z" fill="#9AF5FC" fill-opacity="0.75"/>
<path d="M292.554 74.4724L301.727 64.2845L305.964 77.3227L292.554 74.4724Z" fill="#BA3E03" fill-opacity="0.45"/>
<path d="M519.34 423.375L510.707 427.039L511.85 417.73L519.34 423.375Z" fill="#480CA7" fill-opacity="0.75"/>
<path d="M307.766 348.799L308.128 355.705L302.329 359.471L296.167 356.332L295.805 349.426L301.605 345.66L307.766 348.799Z" fill="#4BC8EF" fill-opacity="0.9"/>
<path d="M499.078 276.538L497.619 266.153L508.003 264.694L509.462 275.078L499.078 276.538Z" fill="#F54721" fill-opacity="0.45"/>
<path d="M630.725 140.702L626.955 143.342L623.28 140.572L624.778 136.22L629.38 136.3L630.725 140.702Z" fill="#9DED1A" fill-opacity="0.45"/>
<path d="M566.598 154.23L561.651 158.237L556.313 154.77L557.96 148.621L564.317 148.288L566.598 154.23Z" fill="#DCBCFA" fill-opacity="0.6"/>
<path d="M31.4018 222.378L35.891 225.406L35.5133 230.808L30.6463 233.181L26.1571 230.153L26.5348 224.752L31.4018 222.378Z" fill="#FFED36" fill-opacity="0.6"/>
<path d="M200.133 442.316L195.95 436.765L201.501 432.582L205.684 438.133L200.133 442.316Z" fill="#4BC8EF" fill-opacity="0.35"/>
<path d="M438.676 413.16L430.594 403.179L443.279 401.17L438.676 413.16Z" fill="#FFED36" fill-opacity="0.9"/>
<path d="M457.234 112.188L456.459 101.104L466.446 105.975L457.234 112.188Z" fill="#C9FCBE" fill-opacity="0.45"/>
<path d="M587.874 158.297L578.954 161.195L580.904 152.021L587.874 158.297Z" fill="#F54721" fill-opacity="0.9"/>
<path d="M126.205 4.90963L123.698 8.7695L119.253 7.57832L119.012 2.98227L123.309 1.33293L126.205 4.90963Z" fill="#FC9E1C" fill-opacity="0.65"/>
<path d="M117.336 170.034L118.379 158.102L128.191 164.972L117.336 170.034Z" fill="#BA3E03" fill-opacity="0.6"/>
<path d="M630.988 250.664L625.548 254.064L619.884 251.052L619.66 244.641L625.1 241.241L630.764 244.253L630.988 250.664Z" fill="#9DED1A" fill-opacity="0.6"/>
<path d="M109.282 234.521L110.043 228.324L116.24 229.085L115.479 235.282L109.282 234.521Z" fill="#BA3E03" fill-opacity="0.75"/>
<path d="M658.086 44.0857L663.086 39.2573L667.914 44.2573L662.914 49.0858L658.086 44.0857Z" fill="#9DED1A" fill-opacity="0.85"/>
<path d="M4.18099 395.644L4.94072 386.96L13.4342 385L17.9237 392.471L12.2049 399.05L4.18099 395.644Z" fill="#9AF5FC"/>
<path d="M201.556 303.793L211.178 309.348L201.556 314.904L201.556 303.793Z" fill="#BA3E03"/>
<path d="M570.973 158.175L578.821 151.589L580.6 161.679L570.973 158.175Z" fill="#755FFE"/>
<path d="M35.8266 71.655L36.5274 65.9473L31.3156 63.517L36.9605 62.4197L37.6613 56.712L40.4493 61.7415L46.0942 60.6443L42.1723 64.85L44.9603 69.8796L39.7485 67.4493L35.8266 71.655Z" fill="#FF21FB" fill-opacity="0.85"/>
<path d="M638.974 265.196L643.41 267.555L647.024 264.065L646.152 269.013L650.588 271.371L645.613 272.071L644.74 277.018L642.538 272.503L637.563 273.202L641.177 269.712L638.974 265.196Z" fill="#F62584"/>
<path d="M766.114 418.682L770.554 418.221L770.237 413.768L772.857 417.383L776.555 414.882L774.734 418.958L778.749 420.91L774.309 421.371L774.626 425.825L772.006 422.209L768.308 424.711L770.129 420.634L766.114 418.682Z" fill="#4BC8EF" fill-opacity="0.35"/>
<path d="M450.972 310.489L447.389 309.32L446.105 312.863L445.326 309.176L441.616 309.835L444.419 307.317L441.993 304.433L445.576 305.602L446.86 302.059L447.639 305.746L451.35 305.087L448.546 307.605L450.972 310.489Z" fill="#480CA7" fill-opacity="0.9"/>
<path d="M166.555 72.2972L162.161 70.3343L160.057 74.6623L159.56 69.8757L154.76 70.2174L158.657 67.3937L155.961 63.4074L160.355 65.3703L162.459 61.0424L162.956 65.829L167.756 65.4873L163.859 68.311L166.555 72.2972Z" fill="#755FFE" fill-opacity="0.75"/>
<path d="M97.2456 92.207L95.5113 94.7122L96.2841 97.6595L93.7789 95.9252L90.8316 96.6981L92.5659 94.1929L91.793 91.2456L94.2982 92.9799L97.2456 92.207Z" fill="#FF21FB" fill-opacity="0.9"/>
<path d="M444.123 269.043L447.316 271.918L451.038 269.769L449.29 273.695L452.484 276.571L448.21 276.122L446.462 280.048L445.568 275.844L441.294 275.395L445.016 273.246L444.123 269.043Z" fill="#03A3F5" fill-opacity="0.6"/>
<path d="M489.042 306.604L491.182 302.528L489.48 298.251L493.556 300.39L497.833 298.688L495.694 302.765L497.396 307.042L493.32 304.903L489.042 306.604Z" fill="#C9FCBE" fill-opacity="0.65"/>
<path d="M437.824 19.7925L440.207 21.9389L442.985 20.335L441.681 23.2654L444.064 25.4117L440.874 25.0764L439.57 28.0068L438.903 24.8692L435.712 24.5339L438.49 22.9301L437.824 19.7925Z" fill="#FC9E1C" fill-opacity="0.85"/>
<path d="M332.469 93.6602L330.494 96.1879L332.288 98.8472L329.273 97.7501L327.299 100.278L327.411 97.072L324.396 95.975L327.48 95.0908L327.592 91.8851L329.385 94.5444L332.469 93.6602Z" fill="#9DED1A" fill-opacity="0.9"/>
<path d="M570.898 277.838L565.443 278.598L566.025 284.075L562.64 279.73L558.188 282.974L560.257 277.869L555.223 275.635L560.678 274.875L560.095 269.398L563.481 273.743L567.933 270.499L565.864 275.604L570.898 277.838Z" fill="#755FFE" fill-opacity="0.6"/>
<path d="M759.356 57.181L763.86 60.7887L769.531 59.7179L765.923 64.2221L766.994 69.8928L762.49 66.285L756.819 67.3559L760.427 62.8517L759.356 57.181Z" fill="#03A3F5" fill-opacity="0.65"/>
<path d="M452.707 411.438L448.176 414.978L450.142 420.382L445.375 417.166L440.843 420.707L442.428 415.179L437.661 411.963L443.408 411.762L444.993 406.235L446.96 411.638L452.707 411.438Z" fill="#4BC8EF" fill-opacity="0.35"/>
<path d="M711.94 200.667L716.087 199.913L718.213 196.275L718.967 200.421L722.606 202.548L718.459 203.302L716.333 206.94L715.579 202.794L711.94 200.667Z" fill="#F54721" fill-opacity="0.85"/>
<path d="M234.63 71.5334L236.681 73.7868L239.726 73.6968L237.473 75.7476L237.563 78.7933L235.512 76.5399L232.467 76.6299L234.72 74.579L234.63 71.5334Z" fill="#BA3E03" fill-opacity="0.45"/>
<path d="M332.564 233.106L329.639 230.731L327.17 233.578L327.764 229.857L324.064 229.142L327.584 227.796L326.352 224.234L329.278 226.61L331.747 223.763L331.153 227.484L334.853 228.198L331.333 229.544L332.564 233.106Z" fill="#FF21FB" fill-opacity="0.75"/>
<path d="M379.057 439.284L383.179 441.768L385.795 437.728L385.705 442.54L390.511 442.786L386.299 445.114L388.489 449.399L384.367 446.915L381.752 450.954L381.842 446.143L377.036 445.897L381.247 443.569L379.057 439.284Z" fill="#FC9E1C"/>
<path d="M319 11.585L323.682 9.85237L325.415 5.17L327.148 9.85237L331.83 11.585L327.148 13.3176L325.415 18L323.682 13.3176L319 11.585Z" fill="#F62584" fill-opacity="0.75"/>
<path d="M77.1328 87.316L76.661 83.9282L73.2598 84.29L75.9578 82.1875L73.9438 79.4228L77.1136 80.7081L78.5009 77.5816L78.9727 80.9694L82.374 80.6076L79.676 82.7101L81.6899 85.4748L78.5201 84.1895L77.1328 87.316Z" fill="#FF21FB" fill-opacity="0.9"/>
<path d="M383.481 288.148L381.393 291.809L382.813 295.777L379.152 293.689L375.184 295.11L377.272 291.449L375.852 287.481L379.513 289.568L383.481 288.148Z" fill="#FC9E1C" fill-opacity="0.65"/>
<path d="M669.446 318.472L675.601 318.225L679.419 313.391L679.667 319.546L684.501 323.364L678.346 323.612L674.528 328.446L674.28 322.291L669.446 318.472Z" fill="#FF21FB" fill-opacity="0.35"/>
<path d="M715.89 19.8896L713.641 24.7793L715.89 29.6689L711 27.4206L706.11 29.6689L708.359 24.7793L706.11 19.8896L711 22.138L715.89 19.8896Z" fill="#F54721" fill-opacity="0.6"/>
<path d="M716.609 48.4409L715.291 43.6253L710.778 41.4912L715.593 40.1733L717.728 35.6597L719.046 40.4753L723.559 42.6094L718.744 43.9274L716.609 48.4409Z" fill="#FFED36" fill-opacity="0.9"/>
</svg>
