<svg width="781" height="454" viewBox="0 0 781 454" fill="none" xmlns="http://www.w3.org/2000/svg">
<rect width="23.5281" height="7.70307" transform="matrix(0.136605 -0.990626 0.989897 0.141788 443.188 62.7505)" fill="#FF7272" fill-opacity="0.75"/>
<rect width="13.2669" height="7.7024" transform="matrix(0.11961 0.992821 -0.992261 0.12417 98.4714 406.092)" fill="#BD53B5"/>
<rect width="20.9944" height="4.39721" transform="matrix(-0.803661 0.595087 -0.580478 -0.814276 397.167 404.453)" fill="#FF7272" fill-opacity="0.9"/>
<rect width="28.7321" height="4.41953" transform="matrix(0.959851 0.280509 -0.270836 0.962625 185.77 278.337)" fill="#FF7272" fill-opacity="0.6"/>
<rect width="5.25967" height="4.36479" transform="matrix(0.507867 0.861436 -0.8528 0.522237 53.7029 25.1084)" fill="#FDEB91" fill-opacity="0.65"/>
<rect width="28.0125" height="4.35643" transform="matrix(-0.400322 -0.916375 0.910634 -0.413213 339.102 102.674)" fill="#FF7272" fill-opacity="0.6"/>
<rect width="10.925" height="5.49472" transform="matrix(0.5519 -0.833911 0.824065 0.566495 681.582 408.373)" fill="#FF7272" fill-opacity="0.9"/>
<rect width="9.79395" height="6.61865" transform="matrix(0.537373 0.843345 -0.833897 0.55192 709.562 19.405)" fill="#BD53B5" fill-opacity="0.9"/>
<rect width="24.398" height="6.65746" transform="matrix(0.771257 0.636524 -0.622091 0.782945 162.267 414.077)" fill="#BD53B5"/>
<rect width="15.5372" height="4.3468" transform="matrix(0.220928 -0.97529 0.973417 0.229039 201.439 38.7964)" fill="#FDEB91" fill-opacity="0.75"/>
<rect width="22.2442" height="6.62694" transform="matrix(-0.594521 -0.80408 0.793095 -0.609097 378.274 209.897)" fill="#FF7272" fill-opacity="0.45"/>
<rect width="7.445" height="7.82726" transform="matrix(-0.924676 0.380755 -0.368525 -0.929618 66.0139 124.347)" fill="#FF7272" fill-opacity="0.9"/>
<rect width="30.3778" height="5.46228" transform="matrix(-0.0684505 0.997655 -0.99747 -0.0710871 255.161 92.4077)" fill="#FF7272" fill-opacity="0.6"/>
<rect width="28.9375" height="7.78206" transform="matrix(-0.736787 0.676124 -0.662091 -0.749423 343.579 266.93)" fill="#FDEB91" fill-opacity="0.9"/>
<rect width="22.1424" height="4.39302" transform="matrix(0.771257 0.636524 -0.622091 0.782945 170.101 126.628)" fill="#FDEB91" fill-opacity="0.35"/>
<rect width="17.8232" height="4.34508" transform="matrix(0.170478 -0.985362 0.984234 0.176874 87.2793 449.437)" fill="#BD53B5" fill-opacity="0.45"/>
<rect width="10.8544" height="7.79712" transform="matrix(0.803661 0.595087 -0.580478 0.814276 142.121 65.0317)" fill="#FF7272" fill-opacity="0.9"/>
<rect width="21.1896" height="5.47922" transform="matrix(0.400322 -0.916375 0.910634 0.413213 446.914 352.673)" fill="#FF7272" fill-opacity="0.75"/>
<rect width="15.3007" height="8.96494" transform="matrix(-0.924676 0.380755 -0.368525 -0.929618 577.494 269.212)" fill="#BD53B5" fill-opacity="0.9"/>
<rect width="27.9178" height="4.37149" transform="matrix(0.580478 0.814276 -0.803661 0.595087 709.562 418.639)" fill="#FDEB91" fill-opacity="0.65"/>
<rect width="20.1073" height="6.58344" transform="matrix(-0.136605 -0.990626 0.989897 -0.141788 166.743 347.918)" fill="#FDEB91" fill-opacity="0.45"/>
<rect width="18.747" height="6.66172" transform="matrix(-0.793095 0.609097 -0.594521 -0.80408 675.985 330.808)" fill="#FDEB91" fill-opacity="0.35"/>
<rect width="26.6797" height="5.51983" transform="matrix(0.736787 -0.676124 0.662091 0.749423 757.688 444.875)" fill="#FF7272" fill-opacity="0.65"/>
<ellipse cx="452.042" cy="128.794" rx="4.82979" ry="5.12852" transform="rotate(-90 452.042 128.794)" fill="#FDEB91"/>
<ellipse cx="558.276" cy="53.9326" rx="0.804965" ry="1.46529" transform="rotate(-90 558.276 53.9326)" fill="#BD53B5" fill-opacity="0.75"/>
<ellipse cx="392.698" cy="194.801" rx="3.21986" ry="2.93058" transform="rotate(-90 392.698 194.801)" fill="#FF7272" fill-opacity="0.85"/>
<ellipse cx="238.11" cy="60.3723" rx="5.63475" ry="5.12852" transform="rotate(-90 238.11 60.3723)" fill="#FF7272" fill-opacity="0.6"/>
<ellipse cx="401.49" cy="145.698" rx="2.41489" ry="2.93058" transform="rotate(-90 401.49 145.698)" fill="#FDEB91" fill-opacity="0.35"/>
<ellipse cx="352.402" cy="427.342" rx="2.41489" ry="3.66323" transform="rotate(-90 352.402 427.342)" fill="#FDEB91"/>
<ellipse cx="76.1952" cy="46.6878" rx="4.82979" ry="4.39587" transform="rotate(-90 76.1952 46.6878)" fill="#BD53B5" fill-opacity="0.75"/>
<ellipse cx="63.0075" cy="212.511" rx="1.60993" ry="2.93058" transform="rotate(-90 63.0075 212.511)" fill="#BD53B5" fill-opacity="0.85"/>
<ellipse cx="115.758" cy="236.659" rx="4.82979" ry="4.39587" transform="rotate(-90 115.758 236.659)" fill="#BD53B5" fill-opacity="0.65"/>
<ellipse cx="550.217" cy="411.337" rx="5.63475" ry="3.66323" transform="rotate(-90 550.217 411.337)" fill="#FDEB91" fill-opacity="0.9"/>
<ellipse cx="630.075" cy="69.2269" rx="3.21986" ry="2.93058" transform="rotate(-90 630.075 69.2269)" fill="#FF7272" fill-opacity="0.6"/>
<ellipse cx="331.888" cy="181.922" rx="3.21986" ry="3.66323" transform="rotate(-90 331.888 181.922)" fill="#FDEB91" fill-opacity="0.75"/>
<ellipse cx="528.237" cy="292.202" rx="5.63475" ry="5.12852" transform="rotate(-90 528.237 292.202)" fill="#FF7272" fill-opacity="0.35"/>
<ellipse cx="155.321" cy="449.975" rx="4.02482" ry="4.39587" transform="rotate(-90 155.321 449.975)" fill="#FF7272"/>
<ellipse cx="676.964" cy="242.294" rx="4.02482" ry="4.39587" transform="rotate(-90 676.964 242.294)" fill="#FF7272" fill-opacity="0.65"/>
<ellipse cx="285.732" cy="144.088" rx="4.02482" ry="4.39587" transform="rotate(-90 285.732 144.088)" fill="#FF7272" fill-opacity="0.75"/>
<ellipse cx="90.1153" cy="82.1062" rx="4.82979" ry="5.12852" transform="rotate(-90 90.1153 82.1062)" fill="#FF7272" fill-opacity="0.45"/>
<ellipse cx="73.2645" cy="122.355" rx="4.82979" ry="4.39587" transform="rotate(-90 73.2645 122.355)" fill="#FF7272" fill-opacity="0.9"/>
<ellipse cx="164.845" cy="122.355" rx="1.60993" ry="2.19794" transform="rotate(-90 164.845 122.355)" fill="#FF7272" fill-opacity="0.35"/>
<ellipse cx="620.551" cy="420.191" rx="4.82979" ry="5.12852" transform="rotate(-90 620.551 420.191)" fill="#BD53B5" fill-opacity="0.35"/>
<ellipse cx="24.1773" cy="223.78" rx="4.82979" ry="5.12852" transform="rotate(-90 24.1773 223.78)" fill="#FDEB91" fill-opacity="0.35"/>
<ellipse cx="482.813" cy="176.287" rx="2.41489" ry="2.19794" transform="rotate(-90 482.813 176.287)" fill="#FF7272" fill-opacity="0.6"/>
<ellipse cx="379.51" cy="431.367" rx="4.82979" ry="5.86116" transform="rotate(-90 379.51 431.367)" fill="#FF7272" fill-opacity="0.35"/>
<path d="M169.952 112.546L171.723 116.601L168.487 119.571L164.715 117.352L165.621 113.01L169.952 112.546Z" fill="#FF7272" fill-opacity="0.45"/>
<path d="M665.825 187.231L663.03 189.708L659.527 188.479L658.82 184.773L661.616 182.296L665.119 183.525L665.825 187.231Z" fill="#FF7272" fill-opacity="0.85"/>
<path d="M281.452 363.396L280.393 371.08L272.853 370L273.913 362.316L281.452 363.396Z" fill="#FF7272" fill-opacity="0.85"/>
<path d="M749.929 374.049L760.18 377.443L756.85 387.891L746.598 384.496L749.929 374.049Z" fill="#FF7272" fill-opacity="0.9"/>
<path d="M353.047 173.15L357.378 172.686L359.149 176.741L355.913 179.711L352.142 177.492L353.047 173.15Z" fill="#FDEB91" fill-opacity="0.85"/>
<path d="M147.503 428.81L152.687 432.509L150.837 438.677L144.509 438.79L142.449 432.691L147.503 428.81Z" fill="#BD53B5" fill-opacity="0.9"/>
<path d="M170.779 180.19L163.235 174.604L171.753 170.739L170.779 180.19Z" fill="#FDEB91" fill-opacity="0.65"/>
<path d="M100.146 194.626L92.182 199.312L87.584 191.195L95.548 186.509L100.146 194.626Z" fill="#BD53B5" fill-opacity="0.85"/>
<path d="M570.164 96.7783L564.142 97.0999L563.826 90.9622L569.849 90.6406L570.164 96.7783Z" fill="#FDEB91" fill-opacity="0.85"/>
<path d="M368.786 427.905L364.401 417.869L374.248 413.401L378.633 423.436L368.786 427.905Z" fill="#FF7272" fill-opacity="0.35"/>
<path d="M133.289 95.5319L128.845 89.9383L131.376 83.2188L138.351 82.0928L142.795 87.6864L140.264 94.406L133.289 95.5319Z" fill="#FF7272" fill-opacity="0.85"/>
<path d="M85.7787 382.964L96.9534 377.894L95.6748 390.292L85.7787 382.964Z" fill="#FDEB91" fill-opacity="0.35"/>
<path d="M162.848 273.147L160.341 269.631L162.076 265.661L166.317 265.207L168.823 268.723L167.089 272.693L162.848 273.147Z" fill="#BD53B5" fill-opacity="0.6"/>
<path d="M600.192 201.362L599.927 209.117L592.318 208.846L592.584 201.091L600.192 201.362Z" fill="#FDEB91" fill-opacity="0.45"/>
<path d="M126.989 42.9544L120.089 39.6752L123.306 32.6429L130.206 35.9221L126.989 42.9544Z" fill="#FF7272" fill-opacity="0.6"/>
<path d="M599.795 133.825L592.488 137.953L592.634 129.439L599.795 133.825Z" fill="#BD53B5" fill-opacity="0.75"/>
<path d="M134.446 137.82L140.456 143.735L132.425 146.082L134.446 137.82Z" fill="#BD53B5" fill-opacity="0.9"/>
<path d="M266.171 235.57L269.672 243.976L262.91 249.967L255.229 245.264L257.245 236.366L266.171 235.57Z" fill="#FDEB91" fill-opacity="0.75"/>
<path d="M375.496 100.073L384.413 102.851L377.594 109.332L375.496 100.073Z" fill="#BD53B5" fill-opacity="0.9"/>
<path d="M251.666 159.163L249.056 154.364L251.828 149.661L257.211 149.757L259.821 154.556L257.048 159.259L251.666 159.163Z" fill="#BD53B5" fill-opacity="0.9"/>
<path d="M432.473 206.225L431.157 199.917L436.638 196.692L441.341 201.007L438.767 206.9L432.473 206.225Z" fill="#BD53B5"/>
<path d="M522.409 161.378L525.295 168.307L517.964 167.389L522.409 161.378Z" fill="#FF7272" fill-opacity="0.9"/>
<path d="M164.161 417.67L159.902 415.362L159.733 410.449L163.824 407.844L168.083 410.152L168.252 415.065L164.161 417.67Z" fill="#BD53B5" fill-opacity="0.75"/>
<path d="M270.142 171.859L271.049 168.408L268.11 166.463L271.61 166.276L272.517 162.826L273.773 166.16L277.273 165.974L274.549 168.221L275.805 171.556L272.866 169.611L270.142 171.859Z" fill="#FF7272" fill-opacity="0.6"/>
<path d="M75.1444 115.141L71.1011 118.36L72.856 123.274L68.6022 120.35L64.5589 123.57L65.9732 118.543L61.7194 115.619L66.8473 115.436L68.2616 110.409L70.0165 115.323L75.1444 115.141Z" fill="#BD53B5" fill-opacity="0.65"/>
<path d="M601.644 348.399L606.465 349.966L610.772 347.257L609.233 352.17L611.892 356.559L607.071 354.991L602.765 357.701L604.303 352.787L601.644 348.399Z" fill="#FDEB91" fill-opacity="0.75"/>
<path d="M404.714 254.18L406.371 256.69L408.885 255.084L407.581 257.801L410.203 259.217L407.242 259.424L407.35 262.447L405.693 259.937L403.179 261.543L404.483 258.827L401.861 257.41L404.821 257.203L404.714 254.18Z" fill="#FF7272"/>
<path d="M92.6612 192.922L94.6224 198.628L100.149 200.825L94.5505 202.823L92.3952 208.456L90.434 202.75L84.9075 200.553L90.5058 198.555L92.6612 192.922Z" fill="#FDEB91"/>
<path d="M271.743 97.2963L267.582 96.7986L264.503 99.6941L264.991 95.4531L262.15 92.3146L266.311 92.8123L269.391 89.9168L268.902 94.1578L271.743 97.2963Z" fill="#FF7272" fill-opacity="0.35"/>
<path d="M668.233 14.7525L669.485 10.3206L665.18 8.90093L669.572 7.79078L668.626 3.28067L671.765 6.60236L675.124 3.51196L673.871 7.9438L678.177 9.36351L673.785 10.4737L674.731 14.9838L671.592 11.6621L668.233 14.7525Z" fill="#BD53B5" fill-opacity="0.9"/>
<path d="M482.018 430.8L476.998 431.456L474.219 435.767L473.575 430.651L469.346 427.818L474.366 427.163L477.145 422.852L477.788 427.968L482.018 430.8Z" fill="#FDEB91" fill-opacity="0.6"/>
<path d="M161.52 211.358L165.386 207.376L164.936 201.793L168.844 205.733L174.322 205.274L170.456 209.257L170.906 214.84L166.998 210.9L161.52 211.358Z" fill="#FF7272" fill-opacity="0.65"/>
<path d="M82.4765 263.389L87.0928 265.108L88.9282 260.461L89.7756 265.395L94.6417 264.692L90.8727 267.907L93.9035 271.85L89.2872 270.131L87.4518 274.777L86.6044 269.843L81.7383 270.547L85.5072 267.332L82.4765 263.389Z" fill="#BD53B5" fill-opacity="0.75"/>
<path d="M745.156 263.345L743.49 260.947L740.619 260.675L742.972 258.977L743.238 256.051L744.905 258.449L747.776 258.721L745.423 260.419L745.156 263.345Z" fill="#FF7272" fill-opacity="0.9"/>
<path d="M196.871 243.908L193.675 240.642L190.369 243.792L191.546 239.339L187.216 237.996L191.589 236.808L190.565 232.315L193.761 235.58L197.067 232.431L195.89 236.884L200.22 238.227L195.847 239.415L196.871 243.908Z" fill="#BD53B5" fill-opacity="0.9"/>
<path d="M650.592 204.39L646.149 207.004L647.216 212.119L643.402 208.62L638.959 211.235L641.046 206.458L637.233 202.959L642.336 203.505L644.423 198.728L645.489 203.843L650.592 204.39Z" fill="#FDEB91" fill-opacity="0.85"/>
<path d="M562.285 248.373L559.232 251.485L561.192 255.406L557.345 253.408L554.292 256.52L554.967 252.173L551.12 250.175L555.385 249.487L556.06 245.14L558.02 249.061L562.285 248.373Z" fill="#FF7272" fill-opacity="0.75"/>
<path d="M606.512 396.877L610.517 400.03L615.473 398.985L612.378 403.066L613.404 408.117L609.399 404.963L604.443 406.009L607.538 401.927L606.512 396.877Z" fill="#FDEB91" fill-opacity="0.6"/>
<path d="M119.357 242.67L124.62 243.335L125.444 237.995L127.51 242.974L132.46 241.03L129.262 245.343L133.388 248.74L128.125 248.075L127.301 253.415L125.235 248.436L120.285 250.38L123.483 246.067L119.357 242.67Z" fill="#FF7272" fill-opacity="0.75"/>
<path d="M746.8 162.012L742.175 162.12L739.245 165.767L739.14 161.055L735.561 158.068L740.185 157.961L743.115 154.313L743.221 159.026L746.8 162.012Z" fill="#FDEB91" fill-opacity="0.65"/>
<path d="M652.271 33.5322L649.841 38.0567L651.629 42.8818L647.19 40.4053L642.456 42.228L644.885 37.7035L643.097 32.8784L647.536 35.3549L652.271 33.5322Z" fill="#FF7272" fill-opacity="0.85"/>
<path d="M695.724 133.823L691.244 133.175L690.464 137.718L688.774 133.44L684.523 135.023L687.314 131.392L683.843 128.432L688.324 129.079L689.104 124.536L690.794 128.815L695.045 127.232L692.254 130.863L695.724 133.823Z" fill="#FF7272" fill-opacity="0.45"/>
<path d="M541.416 251.455L544.57 255.296L548.44 252.208L546.753 256.912L551.312 258.783L546.471 259.647L547.161 264.606L544.007 260.765L540.137 263.854L541.824 259.149L537.265 257.278L542.106 256.415L541.416 251.455Z" fill="#BD53B5" fill-opacity="0.85"/>
<path d="M289.21 99.9116L284.389 98.3439L280.083 101.054L281.621 96.1399L278.962 91.7513L283.784 93.3189L288.09 90.609L286.552 95.5229L289.21 99.9116Z" fill="#FDEB91" fill-opacity="0.85"/>
<path d="M662.753 297.465L665.818 295.733L665.149 292.227L667.713 294.663L670.778 292.931L669.297 296.169L671.86 298.605L668.381 298.169L666.9 301.407L666.231 297.9L662.753 297.465Z" fill="#BD53B5" fill-opacity="0.85"/>
<path d="M12.8693 346.786L9.12313 345L7.2501 348.758L6.89481 344.558L2.76484 344.784L6.15576 342.371L3.89883 338.838L7.64503 340.624L9.51806 336.866L9.87336 341.066L14.0033 340.84L10.6124 343.253L12.8693 346.786Z" fill="#BD53B5"/>
</svg>
